<svg width="56" height="56" viewBox="0 0 56 56" fill="none" xmlns="http://www.w3.org/2000/svg">
<path d="M0 28C0 12.536 12.536 0 28 0C43.464 0 56 12.536 56 28C56 43.464 43.464 56 28 56C12.536 56 0 43.464 0 28Z" fill="#E9F4FC"/>
<path fill-rule="evenodd" clip-rule="evenodd" d="M28.0089 15C28.4223 15 28.7574 15.3351 28.7574 15.7485V19.3537C29.4134 18.9323 30.2259 18.5507 31.1491 18.3433C32.8931 17.9514 34.9976 18.192 37.1028 19.8761C39.7105 21.9623 40.5751 25.1865 40.3264 28.2953C40.0782 31.3976 38.7174 34.5157 36.6933 36.5399C35.0702 38.163 32.6843 39.6791 29.7396 40.0264C27.104 40.3371 24.1 39.7019 20.8913 37.4988V40.2515C20.8913 40.6649 20.5562 41 20.1428 41C19.7294 41 19.3943 40.6649 19.3943 40.2515V36.0106C19.3943 35.7228 19.5592 35.4606 19.8186 35.3359C20.0779 35.2113 20.3857 35.2463 20.6104 35.4261C24.0128 38.148 27.0548 38.8355 29.5643 38.5396C32.0952 38.2412 34.1859 36.9301 35.6347 35.4813C37.3802 33.7358 38.6111 30.9637 38.8341 28.1759C39.0566 25.3946 38.272 22.7287 36.1676 21.0451C34.4348 19.6589 32.7999 19.5067 31.4772 19.8039C30.1147 20.1101 29.0478 20.9043 28.5616 21.4366C28.3532 21.6647 28.0262 21.7414 27.7382 21.6297C27.4501 21.518 27.2604 21.2408 27.2604 20.9318V15.7485C27.2604 15.3351 27.5955 15 28.0089 15Z" fill="#4A8EED"/>
<path fill-rule="evenodd" clip-rule="evenodd" d="M24.3836 15C24.797 15 25.1321 15.3351 25.1321 15.7485V21.3754C25.1321 21.8344 25.2875 22.257 25.5746 22.5752L25.583 22.5846C26.3005 23.38 27.3964 24.5948 27.8574 26.0246C28.0959 26.7644 28.1733 27.5829 27.9371 28.4389C27.7016 29.2928 27.1714 30.1207 26.3 30.9106C24.3016 32.7223 21.3228 32.9866 18.9156 32.6766C17.9481 32.5521 17.1216 33.2577 17.1216 34.0183V40.2515C17.1216 40.6649 16.7864 41 16.373 41C15.9596 41 15.6245 40.6649 15.6245 40.2515V34.0183C15.6245 32.1469 17.4637 30.9803 19.1067 31.1918C21.3483 31.4805 23.7787 31.1756 25.2945 29.8015C26.0029 29.1593 26.3493 28.5652 26.494 28.0407C26.6381 27.5183 26.5995 27.002 26.4325 26.484C26.0843 25.4038 25.218 24.4149 24.463 23.578C23.9078 22.9625 23.6351 22.1738 23.6351 21.3754V15.7485C23.6351 15.3351 23.9702 15 24.3836 15Z" fill="#4A8EED"/>
</svg>
