<svg width="56" height="56" viewBox="0 0 56 56" fill="none" xmlns="http://www.w3.org/2000/svg">
<path d="M0 28C0 12.536 12.536 0 28 0C43.464 0 56 12.536 56 28C56 43.464 43.464 56 28 56C12.536 56 0 43.464 0 28Z" fill="#F2F8FF"/>
<path d="M28 32.375C32.5909 32.375 36.3125 28.6534 36.3125 24.0625C36.3125 19.4716 32.5909 15.75 28 15.75C23.4091 15.75 19.6875 19.4716 19.6875 24.0625C19.6875 28.6534 23.4091 32.375 28 32.375Z" stroke="#4A8EED" stroke-width="2" stroke-linecap="round" stroke-linejoin="round"/>
<path d="M28 32.375V40.25M31.1719 36.75H24.8281" stroke="#4A8EED" stroke-width="2" stroke-linecap="round" stroke-linejoin="round"/>
</svg>
