<svg width="20" height="20" viewBox="0 0 20 20" fill="none" xmlns="http://www.w3.org/2000/svg">
<path opacity="0.987" fill-rule="evenodd" clip-rule="evenodd" d="M9.01132 1.07594C9.91757 0.974687 10.4538 0.974687 11.4276 1.07594C13.1512 1.33106 14.7491 2.12779 15.9901 3.35094C15.1515 4.14361 14.3239 4.94785 13.5076 5.76344C11.9442 4.43844 10.1992 4.1326 8.27257 4.84594C6.85924 5.49594 5.87507 6.54927 5.32007 8.00594C4.41312 7.33073 3.51799 6.63979 2.63507 5.93344C2.57371 5.90114 2.50363 5.88931 2.43507 5.89969C3.83757 3.19552 6.02924 1.58719 9.01007 1.07469" fill="#F44336"/>
<path opacity="0.997" fill-rule="evenodd" clip-rule="evenodd" d="M2.43257 5.89974C2.5034 5.8889 2.57049 5.90015 2.63382 5.93349C3.51674 6.63984 4.41187 7.33078 5.31882 8.00599C5.1761 8.57356 5.08614 9.15311 5.05007 9.73724C5.0809 10.3022 5.17049 10.8568 5.31882 11.401L2.50007 13.6447C1.27257 11.0797 1.25007 8.49807 2.43257 5.89974Z" fill="#FFC107"/>
<path opacity="0.999" fill-rule="evenodd" clip-rule="evenodd" d="M15.8563 16.3622C14.9786 15.5882 14.0598 14.8621 13.1038 14.1872C14.0622 13.5105 14.6438 12.5822 14.8488 11.4022H10.1526V8.14093C12.8609 8.11843 15.568 8.14135 18.2738 8.20968C18.7872 10.9972 18.1942 13.5105 16.4951 15.7497C16.293 15.9645 16.079 16.1689 15.8563 16.3622Z" fill="#448AFF"/>
<path opacity="0.993" fill-rule="evenodd" clip-rule="evenodd" d="M5.31882 11.4022C6.34382 13.9497 8.22299 15.1389 10.9563 14.9697C11.7236 14.8809 12.4593 14.6128 13.1038 14.1872C14.0605 14.8639 14.978 15.5889 15.8563 16.3622C14.4646 17.6128 12.6902 18.3548 10.8226 18.4672C10.3982 18.5011 9.9719 18.5011 9.54757 18.4672C6.36591 18.0922 4.01674 16.4847 2.50007 13.6447L5.31882 11.4022Z" fill="#43A047"/>
</svg>
