<svg width="16" height="16" viewBox="0 0 16 16" fill="none" xmlns="http://www.w3.org/2000/svg">
<g clip-path="url(#clip0_606_2311)">
<path d="M7.99996 15.3334C12.05 15.3334 15.3333 12.05 15.3333 8.00002C15.3333 3.95002 12.05 0.666687 7.99996 0.666687M7.99996 15.3334C3.94996 15.3334 0.666626 12.05 0.666626 8.00002C0.666626 3.95002 3.94996 0.666687 7.99996 0.666687M7.99996 15.3334C9.99996 15.3334 10.6666 12 10.6666 8.00002C10.6666 4.00002 9.99996 0.666687 7.99996 0.666687M7.99996 15.3334C5.99996 15.3334 5.33329 12 5.33329 8.00002C5.33329 4.00002 5.99996 0.666687 7.99996 0.666687M1.33329 10.6667H14.6666M1.33329 5.33335H14.6666" stroke="#262626" stroke-width="1.5"/>
</g>
<defs>
<clipPath id="clip0_606_2311">
<rect width="16" height="16" fill="white"/>
</clipPath>
</defs>
</svg>
