<svg width="223" height="110" viewBox="0 0 223 110" fill="none" xmlns="http://www.w3.org/2000/svg">
<path d="M26.5673 63.9547C19.6758 63.9547 13.8927 61.6393 9.2179 57.0084C4.54311 52.3775 2.20571 46.5065 2.20571 39.3956C2.20571 32.2846 4.54311 26.4247 9.2179 21.8157C13.9146 17.2068 19.6978 14.9023 26.5673 14.9023C33.3929 14.9023 39.1541 17.2178 43.8509 21.8487C48.5695 26.4796 50.9289 32.3285 50.9289 39.3956C50.9289 46.4188 48.5805 52.2677 43.8838 56.9425C39.209 61.6173 33.4368 63.9547 26.5673 63.9547ZM26.5673 55.2306C30.9348 55.2306 34.5561 53.7382 37.4313 50.7534C40.3283 47.7466 41.7768 43.9606 41.7768 39.3956C41.7768 34.8086 40.3283 31.0336 37.4313 28.0707C34.5342 25.1078 30.9129 23.6264 26.5673 23.6264C22.1998 23.6264 18.5675 25.1188 15.6704 28.1037C12.7953 31.0666 11.3578 34.8305 11.3578 39.3956C11.3578 43.9826 12.7953 47.7685 15.6704 50.7534C18.5455 53.7382 22.1778 55.2306 26.5673 55.2306ZM56.9627 76.5635V28.8938H65.2259V35.3463L63.4152 33.4698H65.3576C66.4111 31.8457 67.9583 30.5179 69.9994 29.4864C72.0625 28.4548 74.3889 27.9391 76.9787 27.9391C81.5877 27.9391 85.4175 29.5961 88.4682 32.9101C91.5189 36.2242 93.0442 40.5259 93.0442 45.8152C93.0442 51.0826 91.4969 55.4282 88.4023 58.8519C85.3297 62.2538 81.456 63.9547 76.7812 63.9547C74.4109 63.9547 72.2161 63.4828 70.197 62.5391C68.1998 61.5734 66.6854 60.2785 65.6539 58.6544V58.7532V76.5635H56.9627ZM74.9705 56.4158C77.7359 56.4158 80.0294 55.4391 81.851 53.4858C83.6727 51.5325 84.5835 49.0085 84.5835 45.914C84.5835 42.7535 83.6617 40.2186 81.8181 38.3092C79.9745 36.3778 77.692 35.4121 74.9705 35.4121C72.2271 35.4121 69.9446 36.3998 68.1229 38.375C66.3013 40.3284 65.3905 42.8304 65.3905 45.881C65.3905 48.9537 66.3013 51.4776 68.1229 53.4529C69.9665 55.4282 72.2491 56.4158 74.9705 56.4158ZM99.2195 63V28.8938H107.911V63H99.2195ZM103.565 24.0215C102.138 24.0215 100.92 23.5167 99.9108 22.5071C98.9012 21.4975 98.3964 20.2794 98.3964 18.8528C98.3964 17.4043 98.9012 16.1972 99.9108 15.2315C100.92 14.2658 102.138 13.783 103.565 13.783C105.057 13.783 106.287 14.2658 107.252 15.2315C108.24 16.1972 108.734 17.4043 108.734 18.8528C108.734 20.3014 108.24 21.5304 107.252 22.54C106.287 23.5276 105.057 24.0215 103.565 24.0215ZM116.118 63V28.8938H124.513V35.1159L123.492 33.8978H124.611C125.687 32.0981 127.234 30.6605 129.253 29.5851C131.272 28.4877 133.423 27.9391 135.706 27.9391C139.503 27.9391 142.488 29.0913 144.66 31.3958C146.833 33.7003 147.919 36.8387 147.919 40.8112V63H139.228V42.7206C139.228 40.4161 138.658 38.6274 137.516 37.3545C136.397 36.0596 134.707 35.4121 132.447 35.4121C130.274 35.4121 128.452 36.2132 126.982 37.8154C125.533 39.4175 124.809 41.4148 124.809 43.807V63H116.118ZM155.738 63V28.8938H164.429V63H155.738ZM160.084 24.0215C158.657 24.0215 157.439 23.5167 156.43 22.5071C155.42 21.4975 154.915 20.2794 154.915 18.8528C154.915 17.4043 155.42 16.1972 156.43 15.2315C157.439 14.2658 158.657 13.783 160.084 13.783C161.576 13.783 162.805 14.2658 163.771 15.2315C164.759 16.1972 165.252 17.4043 165.252 18.8528C165.252 20.3014 164.759 21.5304 163.771 22.54C162.805 23.5276 161.576 24.0215 160.084 24.0215ZM188.702 63.9547C183.457 63.9547 179.111 62.2318 175.665 58.7861C172.241 55.3404 170.53 51.0606 170.53 45.9469C170.53 40.7893 172.252 36.4985 175.698 33.0747C179.144 29.651 183.479 27.9391 188.702 27.9391C193.904 27.9391 198.227 29.6619 201.673 33.1077C205.141 36.5315 206.874 40.8112 206.874 45.9469C206.874 51.0606 205.152 55.3404 201.706 58.7861C198.26 62.2318 193.925 63.9547 188.702 63.9547ZM188.702 56.2841C191.402 56.2841 193.695 55.3074 195.583 53.3541C197.47 51.4008 198.414 48.9317 198.414 45.9469C198.414 42.9181 197.47 40.4381 195.583 38.5067C193.695 36.5754 191.402 35.6097 188.702 35.6097C185.981 35.6097 183.676 36.5863 181.789 38.5396C179.923 40.471 178.99 42.9401 178.99 45.9469C178.99 48.9317 179.923 51.4008 181.789 53.3541C183.654 55.3074 185.959 56.2841 188.702 56.2841Z" fill="white"/>
<path d="M24.2338 105.272C22.5751 105.272 21.1644 104.717 20.0018 103.608C18.8444 102.493 18.2658 101.043 18.2658 99.256C18.2658 97.4907 18.8471 96.0533 20.0098 94.944C21.1724 93.8293 22.5804 93.272 24.2338 93.272C25.8764 93.272 27.2791 93.832 28.4418 94.952C29.6098 96.0667 30.1938 97.5013 30.1938 99.256C30.1938 101 29.6151 102.44 28.4578 103.576C27.3004 104.707 25.8924 105.272 24.2338 105.272ZM24.2338 103.2C25.3058 103.2 26.2018 102.832 26.9218 102.096C27.6418 101.36 28.0018 100.413 28.0018 99.256C28.0018 98.0987 27.6391 97.1573 26.9138 96.432C26.1884 95.7067 25.2951 95.344 24.2338 95.344C23.1671 95.344 22.2711 95.7067 21.5458 96.432C20.8204 97.1573 20.4578 98.0987 20.4578 99.256C20.4578 100.419 20.8178 101.368 21.5378 102.104C22.2631 102.835 23.1618 103.2 24.2338 103.2ZM31.9074 105V96.72H33.9554V98.216L33.7154 97.912H34.0034C34.2754 97.4693 34.6647 97.1147 35.1714 96.848C35.678 96.576 36.214 96.44 36.7794 96.44C37.7127 96.44 38.446 96.7173 38.9794 97.272C39.5127 97.8267 39.7794 98.5787 39.7794 99.528V105H37.6434V100.008C37.6434 99.4267 37.502 98.984 37.2194 98.68C36.9367 98.376 36.5154 98.224 35.9554 98.224C35.406 98.224 34.95 98.4267 34.5874 98.832C34.2247 99.232 34.0434 99.7227 34.0434 100.304V105H31.9074ZM45.6144 105.272C44.3184 105.272 43.2677 104.861 42.4624 104.04C41.6624 103.213 41.2624 102.152 41.2624 100.856C41.2624 99.5973 41.657 98.5467 42.4464 97.704C43.241 96.8613 44.2784 96.44 45.5584 96.44C46.7584 96.44 47.7397 96.8133 48.5024 97.56C49.2704 98.3013 49.6544 99.24 49.6544 100.376V101.304H42.3504V100.072H47.6304V100.064C47.5984 99.5093 47.3984 99.0533 47.0304 98.696C46.6624 98.3333 46.169 98.152 45.5504 98.152C44.889 98.152 44.353 98.3893 43.9424 98.864C43.537 99.3333 43.3344 99.9813 43.3344 100.808C43.3344 101.677 43.5637 102.36 44.0224 102.856C44.4864 103.347 45.0837 103.592 45.8144 103.592C46.1397 103.592 46.4277 103.549 46.6784 103.464C46.929 103.379 47.1557 103.261 47.3584 103.112C47.5664 102.957 47.8037 102.712 48.0704 102.376L49.4144 103.368C49.0624 103.88 48.7077 104.261 48.3504 104.512C47.993 104.763 47.601 104.952 47.1744 105.08C46.7477 105.208 46.2277 105.272 45.6144 105.272ZM54.9699 105V96.72H57.0179V98.152L56.8339 97.912H57.0659C57.3059 97.4853 57.6685 97.1333 58.1539 96.856C58.6445 96.5787 59.1725 96.44 59.7379 96.44C60.3352 96.44 60.8605 96.576 61.3139 96.848C61.7672 97.12 62.0925 97.5067 62.2899 98.008C62.6045 97.496 63.0125 97.1067 63.5139 96.84C64.0152 96.5733 64.5645 96.44 65.1619 96.44C66.1272 96.44 66.8605 96.72 67.3619 97.28C67.8685 97.84 68.1219 98.6213 68.1219 99.624V105H65.9939V100.04C65.9939 99.432 65.8632 98.9787 65.6019 98.68C65.3405 98.3813 64.9485 98.232 64.4259 98.232C63.9139 98.232 63.4845 98.432 63.1379 98.832C62.7912 99.232 62.6179 99.7333 62.6179 100.336V105H60.4739V100.04C60.4739 99.432 60.3405 98.9787 60.0739 98.68C59.8125 98.376 59.4259 98.224 58.9139 98.224C58.4019 98.224 57.9725 98.4293 57.6259 98.84C57.2792 99.2507 57.1059 99.7493 57.1059 100.336V105H54.9699ZM74.1101 105.272C72.7875 105.272 71.7048 104.856 70.8621 104.024C70.0248 103.187 69.6061 102.133 69.6061 100.864C69.6061 99.5733 70.0275 98.5147 70.8701 97.688C71.7181 96.856 72.7981 96.44 74.1101 96.44C75.4168 96.44 76.4915 96.8587 77.3341 97.696C78.1821 98.528 78.6061 99.584 78.6061 100.864C78.6061 102.133 78.1848 103.187 77.3421 104.024C76.5048 104.856 75.4275 105.272 74.1101 105.272ZM74.1101 103.448C74.7928 103.448 75.3581 103.208 75.8061 102.728C76.2595 102.243 76.4861 101.619 76.4861 100.856C76.4861 100.093 76.2595 99.472 75.8061 98.992C75.3528 98.512 74.7875 98.272 74.1101 98.272C73.4168 98.272 72.8435 98.512 72.3901 98.992C71.9421 99.472 71.7181 100.093 71.7181 100.856C71.7181 101.619 71.9421 102.243 72.3901 102.728C72.8435 103.208 73.4168 103.448 74.1101 103.448ZM80.1886 105V96.72H82.2286V98.256L81.9966 98H82.2846C82.4393 97.5467 82.7326 97.1733 83.1646 96.88C83.602 96.5867 84.066 96.44 84.5566 96.44C84.7166 96.44 84.8766 96.456 85.0366 96.488C85.202 96.5147 85.3513 96.5547 85.4846 96.608C85.6233 96.656 85.6926 96.68 85.6926 96.68L85.5966 98.688C85.5966 98.688 85.514 98.6587 85.3486 98.6C85.1833 98.536 85.01 98.4853 84.8286 98.448C84.6473 98.4053 84.4766 98.384 84.3166 98.384C83.746 98.384 83.2713 98.5947 82.8926 99.016C82.514 99.432 82.3246 99.9867 82.3246 100.68V105H80.1886ZM90.4894 105.272C89.1934 105.272 88.1427 104.861 87.3374 104.04C86.5374 103.213 86.1374 102.152 86.1374 100.856C86.1374 99.5973 86.532 98.5467 87.3214 97.704C88.116 96.8613 89.1534 96.44 90.4334 96.44C91.6334 96.44 92.6147 96.8133 93.3774 97.56C94.1454 98.3013 94.5294 99.24 94.5294 100.376V101.304H87.2254V100.072H92.5054V100.064C92.4734 99.5093 92.2734 99.0533 91.9054 98.696C91.5374 98.3333 91.044 98.152 90.4254 98.152C89.764 98.152 89.228 98.3893 88.8174 98.864C88.412 99.3333 88.2094 99.9813 88.2094 100.808C88.2094 101.677 88.4387 102.36 88.8974 102.856C89.3614 103.347 89.9587 103.592 90.6894 103.592C91.0147 103.592 91.3027 103.549 91.5534 103.464C91.804 103.379 92.0307 103.261 92.2334 103.112C92.4414 102.957 92.6787 102.712 92.9454 102.376L94.2894 103.368C93.9374 103.88 93.5827 104.261 93.2254 104.512C92.868 104.763 92.476 104.952 92.0494 105.08C91.6227 105.208 91.1027 105.272 90.4894 105.272ZM103.677 105.272C102.381 105.272 101.33 104.861 100.525 104.04C99.7249 103.213 99.3249 102.152 99.3249 100.856C99.3249 99.5973 99.7195 98.5467 100.509 97.704C101.304 96.8613 102.341 96.44 103.621 96.44C104.821 96.44 105.802 96.8133 106.565 97.56C107.333 98.3013 107.717 99.24 107.717 100.376V101.304H100.413V100.072H105.693V100.064C105.661 99.5093 105.461 99.0533 105.093 98.696C104.725 98.3333 104.232 98.152 103.613 98.152C102.952 98.152 102.416 98.3893 102.005 98.864C101.6 99.3333 101.397 99.9813 101.397 100.808C101.397 101.677 101.626 102.36 102.085 102.856C102.549 103.347 103.146 103.592 103.877 103.592C104.202 103.592 104.49 103.549 104.741 103.464C104.992 103.379 105.218 103.261 105.421 103.112C105.629 102.957 105.866 102.712 106.133 102.376L107.477 103.368C107.125 103.88 106.77 104.261 106.413 104.512C106.056 104.763 105.664 104.952 105.237 105.08C104.81 105.208 104.29 105.272 103.677 105.272ZM113.993 105L111.577 101.288L111.353 101.28L108.129 96.72H110.505L112.945 100.392H113.137L116.409 105H113.993ZM108.033 105L111.385 100.256H111.753L114.097 96.72H116.377L113.089 101.304H112.745L110.289 105H108.033ZM117.548 108.472V96.72H119.604V98.368L119.124 97.832H119.66C119.911 97.4267 120.281 97.0933 120.772 96.832C121.268 96.5707 121.823 96.44 122.436 96.44C123.556 96.44 124.487 96.8427 125.228 97.648C125.969 98.4533 126.34 99.5173 126.34 100.84C126.34 102.147 125.964 103.213 125.212 104.04C124.465 104.861 123.535 105.272 122.42 105.272C121.817 105.272 121.276 105.152 120.796 104.912C120.321 104.672 119.969 104.363 119.74 103.984H119.684V108.472H117.548ZM121.932 103.464C122.599 103.464 123.145 103.221 123.572 102.736C124.004 102.245 124.22 101.619 124.22 100.856C124.22 100.077 124.001 99.4507 123.564 98.976C123.127 98.496 122.583 98.256 121.932 98.256C121.276 98.256 120.727 98.4987 120.284 98.984C119.841 99.464 119.62 100.088 119.62 100.856C119.62 101.619 119.836 102.245 120.268 102.736C120.705 103.221 121.26 103.464 121.932 103.464ZM131.755 105.272C130.459 105.272 129.408 104.861 128.603 104.04C127.803 103.213 127.403 102.152 127.403 100.856C127.403 99.5973 127.798 98.5467 128.587 97.704C129.382 96.8613 130.419 96.44 131.699 96.44C132.899 96.44 133.88 96.8133 134.643 97.56C135.411 98.3013 135.795 99.24 135.795 100.376V101.304H128.491V100.072H133.771V100.064C133.739 99.5093 133.539 99.0533 133.171 98.696C132.803 98.3333 132.31 98.152 131.691 98.152C131.03 98.152 130.494 98.3893 130.083 98.864C129.678 99.3333 129.475 99.9813 129.475 100.808C129.475 101.677 129.704 102.36 130.163 102.856C130.627 103.347 131.224 103.592 131.955 103.592C132.28 103.592 132.568 103.549 132.819 103.464C133.07 103.379 133.296 103.261 133.499 103.112C133.707 102.957 133.944 102.712 134.211 102.376L135.555 103.368C135.203 103.88 134.848 104.261 134.491 104.512C134.134 104.763 133.742 104.952 133.315 105.08C132.888 105.208 132.368 105.272 131.755 105.272ZM137.392 105V96.72H139.432V98.256L139.2 98H139.488C139.642 97.5467 139.936 97.1733 140.368 96.88C140.805 96.5867 141.269 96.44 141.76 96.44C141.92 96.44 142.08 96.456 142.24 96.488C142.405 96.5147 142.554 96.5547 142.688 96.608C142.826 96.656 142.896 96.68 142.896 96.68L142.8 98.688C142.8 98.688 142.717 98.6587 142.552 98.6C142.386 98.536 142.213 98.4853 142.032 98.448C141.85 98.4053 141.68 98.384 141.52 98.384C140.949 98.384 140.474 98.5947 140.096 99.016C139.717 99.432 139.528 99.9867 139.528 100.68V105H137.392ZM147.524 105.272C146.708 105.272 146.062 105.048 145.588 104.6C145.118 104.152 144.884 103.496 144.884 102.632V94.48H147.02V102.328C147.02 102.733 147.105 103.035 147.276 103.232C147.446 103.424 147.7 103.523 148.036 103.528C148.142 103.528 148.254 103.517 148.372 103.496C148.489 103.469 148.63 103.427 148.796 103.368C148.966 103.304 149.052 103.272 149.052 103.272L149.156 104.944C149.156 104.944 149.057 104.979 148.86 105.048C148.662 105.117 148.46 105.171 148.252 105.208C148.044 105.251 147.801 105.272 147.524 105.272ZM143.556 98.408V96.72H149.052V98.408H143.556ZM154.486 105V93.456H156.622V105H154.486ZM162.704 105.272C161.381 105.272 160.299 104.856 159.456 104.024C158.619 103.187 158.2 102.133 158.2 100.864C158.2 99.5733 158.621 98.5147 159.464 97.688C160.312 96.856 161.392 96.44 162.704 96.44C164.011 96.44 165.085 96.8587 165.928 97.696C166.776 98.528 167.2 99.584 167.2 100.864C167.2 102.133 166.779 103.187 165.936 104.024C165.099 104.856 164.021 105.272 162.704 105.272ZM162.704 103.448C163.387 103.448 163.952 103.208 164.4 102.728C164.853 102.243 165.08 101.619 165.08 100.856C165.08 100.093 164.853 99.472 164.4 98.992C163.947 98.512 163.381 98.272 162.704 98.272C162.011 98.272 161.437 98.512 160.984 98.992C160.536 99.472 160.312 100.093 160.312 100.856C160.312 101.619 160.536 102.243 160.984 102.728C161.437 103.208 162.011 103.448 162.704 103.448ZM172.766 105.272C171.444 105.272 170.361 104.856 169.518 104.024C168.681 103.187 168.262 102.133 168.262 100.864C168.262 99.5733 168.684 98.5147 169.526 97.688C170.374 96.856 171.454 96.44 172.766 96.44C174.073 96.44 175.148 96.8587 175.99 97.696C176.838 98.528 177.262 99.584 177.262 100.864C177.262 102.133 176.841 103.187 175.998 104.024C175.161 104.856 174.084 105.272 172.766 105.272ZM172.766 103.448C173.449 103.448 174.014 103.208 174.462 102.728C174.916 102.243 175.142 101.619 175.142 100.856C175.142 100.093 174.916 99.472 174.462 98.992C174.009 98.512 173.444 98.272 172.766 98.272C172.073 98.272 171.5 98.512 171.046 98.992C170.598 99.472 170.374 100.093 170.374 100.856C170.374 101.619 170.598 102.243 171.046 102.728C171.5 103.208 172.073 103.448 172.766 103.448ZM180.173 103.384V100.856L184.149 96.72H186.829L180.173 103.384ZM178.845 105V93.456H180.981V105H178.845ZM184.429 105L181.765 100.776L183.245 99.296L186.997 105H184.429ZM189.185 105.12C188.795 105.12 188.465 104.987 188.193 104.72C187.926 104.448 187.793 104.117 187.793 103.728C187.793 103.344 187.926 103.019 188.193 102.752C188.465 102.485 188.795 102.352 189.185 102.352C189.579 102.352 189.91 102.485 190.177 102.752C190.449 103.019 190.585 103.344 190.585 103.728C190.585 104.117 190.449 104.448 190.177 104.72C189.91 104.987 189.579 105.12 189.185 105.12Z" fill="white"/>
<path d="M206.929 15.4262L210.551 10.8428L210.489 10.6177L205.19 8.96031L206.52 5.37954L211.594 7.38477L211.737 7.24154L211.615 1.83969H215.42L215.298 7.24154L215.461 7.38477L220.536 5.4L221.784 8.91938L216.566 10.6177L216.484 10.8223L220.127 15.4262L216.996 17.636L213.62 12.7662H213.415L210.08 17.636L206.929 15.4262Z" fill="#CDFFF3"/>
</svg>
