<svg width="189" height="90" viewBox="0 0 189 90" fill="none" xmlns="http://www.w3.org/2000/svg">
<path d="M21.5242 64.0645C15.9793 64.0645 11.3113 62.1956 7.52018 58.4576C3.7468 54.7197 1.86011 49.9719 1.86011 44.2145C1.86011 38.4392 3.75566 33.7004 7.54675 29.9979C11.3556 26.2776 16.0147 24.4175 21.5242 24.4175C26.9982 24.4175 31.6397 26.2865 35.4485 30.0244C39.275 33.7447 41.1882 38.4747 41.1882 44.2145C41.1882 49.9011 39.2838 54.6311 35.475 58.4045C31.6839 62.1778 27.0337 64.0645 21.5242 64.0645ZM21.4976 57.0758C25.0584 57.0758 28.008 55.8623 30.3464 53.4353C32.7026 50.9906 33.8806 47.917 33.8806 44.2145C33.8806 40.4765 32.6937 37.4117 30.3199 35.0202C27.9637 32.6109 25.0318 31.4062 21.5242 31.4062C17.9988 31.4062 15.0581 32.6109 12.7019 35.0202C10.3458 37.4295 9.1677 40.4942 9.1677 44.2145C9.1677 47.9347 10.3369 51.0083 12.6753 53.4353C15.0138 55.8623 17.9545 57.0758 21.4976 57.0758ZM46.1611 74.3483V35.8174H52.8575V41.0523L51.3695 39.4579H52.9904C53.823 38.1469 55.0631 37.084 56.7106 36.2691C58.3582 35.4365 60.2183 35.0202 62.291 35.0202C65.9935 35.0202 69.0671 36.3577 71.5118 39.0327C73.9743 41.69 75.2055 45.1622 75.2055 49.4493C75.2055 53.701 73.9654 57.1998 71.4853 59.9457C69.0051 62.6916 65.8961 64.0645 62.1581 64.0645C60.2449 64.0645 58.4822 63.6836 56.8701 62.9219C55.258 62.1601 54.0533 61.1326 53.2561 59.8394L53.203 59.8926V74.3483H46.1611ZM60.67 58.0059C62.8667 58.0059 64.6914 57.2175 66.1441 55.6409C67.6144 54.0465 68.3496 52.0004 68.3496 49.5025C68.3496 46.9692 67.6056 44.9231 66.1175 43.3641C64.6471 41.8052 62.8313 41.0257 60.67 41.0257C58.491 41.0257 56.6663 41.814 55.196 43.3907C53.7256 44.9674 52.9904 47.0046 52.9904 49.5025C52.9904 51.9826 53.7256 54.0199 55.196 55.6143C56.6663 57.2087 58.491 58.0059 60.67 58.0059ZM80.1913 63.2673V35.8174H87.2065V63.2673H80.1913ZM83.6989 31.672C82.5474 31.672 81.5642 31.2734 80.7493 30.4762C79.9521 29.6613 79.5535 28.6781 79.5535 27.5266C79.5535 26.3396 79.9521 25.3564 80.7493 24.577C81.5642 23.7975 82.5474 23.4077 83.6989 23.4077C84.9035 23.4077 85.8956 23.7975 86.6751 24.577C87.4546 25.3564 87.8443 26.3396 87.8443 27.5266C87.8443 28.6781 87.4546 29.6613 86.6751 30.4762C85.8956 31.2734 84.9035 31.672 83.6989 31.672ZM93.8577 63.2673V35.8174H100.634V40.8131L99.8366 39.8299H100.74C101.608 38.3772 102.857 37.2169 104.487 36.3488C106.134 35.4631 107.871 35.0202 109.695 35.0202C112.76 35.0202 115.169 35.9502 116.923 37.8103C118.677 39.6527 119.554 42.1772 119.554 45.3837V63.2673H112.539V46.9249C112.539 45.0294 112.078 43.5678 111.157 42.5404C110.236 41.5129 108.863 40.9991 107.038 40.9991C105.302 40.9991 103.84 41.6546 102.653 42.9655C101.484 44.2587 100.9 45.8797 100.9 47.8284V63.2673H93.8577ZM125.916 63.2673V35.8174H132.931V63.2673H125.916ZM129.423 31.672C128.272 31.672 127.289 31.2734 126.474 30.4762C125.676 29.6613 125.278 28.6781 125.278 27.5266C125.278 26.3396 125.676 25.3564 126.474 24.577C127.289 23.7975 128.272 23.4077 129.423 23.4077C130.628 23.4077 131.62 23.7975 132.399 24.577C133.179 25.3564 133.569 26.3396 133.569 27.5266C133.569 28.6781 133.179 29.6613 132.399 30.4762C131.62 31.2734 130.628 31.672 129.423 31.672ZM152.576 64.0645C148.342 64.0645 144.843 62.6827 142.08 59.9191C139.316 57.1378 137.935 53.6745 137.935 49.5291C137.935 45.3482 139.316 41.8849 142.08 39.139C144.843 36.3931 148.342 35.0202 152.576 35.0202C156.793 35.0202 160.291 36.402 163.073 39.1656C165.854 41.9115 167.245 45.366 167.245 49.5291C167.245 53.6745 165.854 57.1378 163.073 59.9191C160.309 62.6827 156.81 64.0645 152.576 64.0645ZM152.576 57.9261C154.773 57.9261 156.624 57.1378 158.13 55.5611C159.636 53.9845 160.389 51.9738 160.389 49.5291C160.389 47.0666 159.627 45.0559 158.103 43.497C156.598 41.938 154.755 41.1586 152.576 41.1586C150.38 41.1586 148.528 41.9469 147.022 43.5236C145.517 45.0825 144.764 47.0843 144.764 49.5291C144.764 51.9738 145.508 53.9845 146.996 55.5611C148.502 57.1378 150.362 57.9261 152.576 57.9261Z" fill="#4A8EED"/>
<path d="M167.028 12.589L169.951 8.88938L169.902 8.69119L165.624 7.36991L166.697 4.46308L170.793 6.08166L170.909 5.94953L170.81 1.60581H173.898L173.799 5.94953L173.948 6.08166L178.027 4.46308L179.035 7.32036L174.84 8.69119L174.774 8.85635L177.697 12.5725L175.154 14.3727L172.445 10.4254H172.28L169.571 14.3727L167.028 12.589Z" fill="#31D0AA"/>
</svg>
