<svg width="56" height="56" viewBox="0 0 56 56" fill="none" xmlns="http://www.w3.org/2000/svg">
<path d="M0 28C0 12.536 12.536 0 28 0C43.464 0 56 12.536 56 28C56 43.464 43.464 56 28 56C12.536 56 0 43.464 0 28Z" fill="#F2F8FF"/>
<path d="M38.4719 22.778V17.528H33.2219" stroke="#4A8EED" stroke-width="2" stroke-linecap="round" stroke-linejoin="round"/>
<path d="M19.5923 35.9413C22.7814 39.131 27.9521 39.131 31.1417 35.9413C31.901 35.1837 32.5032 34.2836 32.9136 33.2927C33.324 32.3017 33.5347 31.2395 33.5334 30.1669C33.5347 29.0942 33.3241 28.0318 32.9137 27.0408C32.5033 26.0497 31.9011 25.1495 31.1417 24.3919C27.9521 21.2028 22.7814 21.2028 19.5917 24.3919C16.4026 27.5815 16.4032 32.7516 19.5923 35.9413Z" stroke="#4A8EED" stroke-width="2" stroke-linejoin="round"/>
<path d="M31.5 24.5L37.3053 18.6947" stroke="#4A8EED" stroke-width="2" stroke-linecap="round" stroke-linejoin="round"/>
</svg>
