<svg width="24" height="24" viewBox="0 0 24 24" fill="none" xmlns="http://www.w3.org/2000/svg">
<path d="M9.41235 21.25C9.57327 21.5287 9.8047 21.7601 10.0834 21.921C10.3621 22.0819 10.6782 22.1666 11 22.1666C11.3218 22.1666 11.638 22.0819 11.9166 21.921C12.1953 21.7601 12.4268 21.5287 12.5877 21.25" stroke="#262626" stroke-width="1.5" stroke-linecap="round" stroke-linejoin="round"/>
<path d="M2.99023 16.0488C2.87048 16.1801 2.79145 16.3433 2.76276 16.5186C2.73407 16.694 2.75696 16.8739 2.82863 17.0364C2.9003 17.199 3.01767 17.3372 3.16646 17.4343C3.31526 17.5314 3.48906 17.5832 3.66673 17.5833H18.3334C18.511 17.5834 18.6849 17.5318 18.8338 17.4349C18.9827 17.338 19.1002 17.1999 19.172 17.0375C19.2439 16.875 19.267 16.6951 19.2385 16.5198C19.2101 16.3444 19.1313 16.1811 19.0117 16.0497C17.7926 14.793 16.5001 13.4574 16.5001 9.33331C16.5001 7.87462 15.9206 6.47568 14.8892 5.44423C13.8577 4.41278 12.4588 3.83331 11.0001 3.83331C9.54137 3.83331 8.14243 4.41278 7.11098 5.44423C6.07953 6.47568 5.50006 7.87462 5.50006 9.33331C5.50006 13.4574 4.20665 14.793 2.99023 16.0488Z" stroke="#262626" stroke-width="1.5" stroke-linecap="round" stroke-linejoin="round"/>
<path d="M16 4C16 1.79086 17.7909 0 20 0C22.2091 0 24 1.79086 24 4C24 6.20914 22.2091 8 20 8C17.7909 8 16 6.20914 16 4Z" fill="#ED4B69"/>
</svg>
