<svg width="28" height="28" viewBox="0 0 28 28" fill="none" xmlns="http://www.w3.org/2000/svg">
<circle cx="14" cy="14" r="14" fill="#EAEAEA"/>
<path d="M10.696 20V18.008L14.208 14.48C14.736 13.9573 15.128 13.4987 15.384 13.104C15.64 12.7093 15.768 12.3307 15.768 11.968C15.768 11.5627 15.6453 11.24 15.4 11C15.1547 10.7547 14.8187 10.632 14.392 10.632C14.12 10.632 13.888 10.68 13.696 10.776C13.504 10.872 13.3307 11.0053 13.176 11.176C13.0213 11.3467 12.88 11.5467 12.752 11.776C12.6293 12 12.568 12.112 12.568 12.112L10.504 11.152C10.504 11.152 10.608 10.936 10.816 10.504C11.024 10.072 11.2987 9.688 11.64 9.352C11.9813 9.016 12.3867 8.752 12.856 8.56C13.3307 8.36267 13.8987 8.264 14.56 8.264C15.664 8.264 16.568 8.58133 17.272 9.216C17.976 9.85067 18.328 10.688 18.328 11.728C18.328 12.336 18.1787 12.928 17.88 13.504C17.5813 14.08 17.0987 14.6827 16.432 15.312L13.984 17.712L14.008 17.768H18.56V20H10.696Z" fill="#4A8EED"/>
</svg>
