<svg width="271" height="251" viewBox="0 0 271 251" fill="none" xmlns="http://www.w3.org/2000/svg">
<path opacity="0.7" d="M0.083296 139.633C0.083296 139.633 1.62238 185.49 39.6539 212.831C77.6854 240.172 130.392 237.78 173.041 236.949C215.69 236.118 248.402 208.919 253.282 171.636C258.163 134.353 225.565 126.374 207.819 85.9697C190.072 45.5652 191.618 31.6369 154.18 9.09319C116.743 -13.4506 58.2714 7.51881 27.6585 54.375C-2.95436 101.231 0.083296 139.633 0.083296 139.633Z" fill="#D0E3FF"/>
<path d="M217.863 62.4546C217.121 63.305 216.62 64.3364 216.412 65.4426L213.516 67.0571V59.4264L213.57 59.5001L218.194 56.1504C219.855 56.4015 221.555 56.1395 223.061 55.4C225.437 54.1338 227.165 49.7859 227.165 49.7859C227.165 49.7859 221.508 49.1494 219.591 51.5076C218.543 52.7298 217.984 54.2913 218.018 55.8958L213.516 59.1719V53.5376C214.359 53.1474 215.104 52.5758 215.698 51.8643C216.291 51.1528 216.717 50.3193 216.945 49.4241C217.769 46.2553 213.388 40.0046 213.388 40.0046C213.388 40.0046 208.818 46.4294 209.763 49.6854C209.977 50.5604 210.406 51.3693 211.012 52.0402C211.617 52.711 212.38 53.2231 213.232 53.5309V65.7641L209.979 63.0843C210.05 62.2296 209.937 61.3697 209.649 60.5613C209.36 59.7529 208.902 59.0144 208.305 58.3947C206.118 55.9494 200.279 56.1303 200.279 56.1303C200.279 56.1303 202.742 61.0209 204.835 62.6489C206.671 64.0759 209.203 63.493 209.81 63.3188L213.232 66.1527V69.8642H208.149L210.222 82.7406H216.452L218.525 69.8642H213.543V67.4055L216.729 65.6368C218.383 66.1083 220.152 65.9776 221.718 65.2684C223.514 64.2521 225.096 62.9009 226.375 61.2889C226.375 61.2889 220.226 59.7346 217.863 62.4546Z" fill="#4A8EED"/>
<path d="M179.575 36.8156H111.208V42.3293H179.575V36.8156Z" fill="white"/>
<path d="M179.575 45.0827H111.208V50.5964H179.575V45.0827Z" fill="white"/>
<path d="M179.575 53.35H111.208V58.8636H179.575V53.35Z" fill="white"/>
<path d="M179.575 61.6238H111.208V67.1375H179.575V61.6238Z" fill="white"/>
<path d="M179.575 69.891H111.208V75.4047H179.575V69.891Z" fill="white"/>
<path d="M179.575 78.1581H111.208V83.6717H179.575V78.1581Z" fill="white"/>
<path d="M179.575 86.4254H111.208V91.939H179.575V86.4254Z" fill="white"/>
<path d="M179.575 94.6925H111.208V100.206H179.575V94.6925Z" fill="white"/>
<path d="M179.575 102.96H111.208V108.473H179.575V102.96Z" fill="white"/>
<path d="M179.575 111.227H111.208V116.74H179.575V111.227Z" fill="white"/>
<path d="M179.575 119.494H111.208V125.008H179.575V119.494Z" fill="white"/>
<path d="M179.575 127.761H111.208V133.275H179.575V127.761Z" fill="white"/>
<path d="M179.575 136.035H111.208V141.549H179.575V136.035Z" fill="white"/>
<path d="M106.685 36.8156H38.3174V42.3293H106.685V36.8156Z" fill="white"/>
<path d="M106.685 45.0827H38.3174V50.5964H106.685V45.0827Z" fill="white"/>
<path d="M106.685 53.35H38.3174V58.8636H106.685V53.35Z" fill="white"/>
<path d="M106.685 61.6238H38.3174V67.1375H106.685V61.6238Z" fill="white"/>
<path d="M106.685 69.891H38.3174V75.4047H106.685V69.891Z" fill="white"/>
<path d="M106.685 78.1581H38.3174V83.6717H106.685V78.1581Z" fill="white"/>
<path d="M106.685 86.4254H38.3174V91.939H106.685V86.4254Z" fill="white"/>
<path d="M106.685 94.6925H38.3174V100.206H106.685V94.6925Z" fill="white"/>
<path d="M106.685 102.96H38.3174V108.473H106.685V102.96Z" fill="white"/>
<path d="M106.685 111.227H38.3174V116.74H106.685V111.227Z" fill="white"/>
<path d="M106.685 119.494H38.3174V125.008H106.685V119.494Z" fill="white"/>
<path d="M106.685 127.761H38.3174V133.275H106.685V127.761Z" fill="white"/>
<path d="M106.685 136.035H38.3174V141.549H106.685V136.035Z" fill="white"/>
<path d="M182.971 31.3757H34.9154V35.3954H182.971V31.3757Z" stroke="#263238" stroke-width="0.144683" stroke-miterlimit="10"/>
<path d="M35.0163 167.817H28.266V250H35.0163V167.817Z" stroke="#263238" stroke-width="0.144683" stroke-miterlimit="10"/>
<path d="M190.727 167.817H183.976V250H190.727V167.817Z" stroke="#263238" stroke-width="0.144683" stroke-miterlimit="10"/>
<path d="M37.2709 147.719H182.086C184.679 147.719 187.165 148.741 188.998 150.56C190.831 152.379 191.861 154.847 191.861 157.42V172.004H27.5032V157.426C27.5023 156.152 27.7542 154.891 28.2446 153.713C28.735 152.536 29.4543 151.466 30.3613 150.565C31.2683 149.663 32.3453 148.948 33.5309 148.46C34.7165 147.971 35.9873 147.72 37.2709 147.719Z" fill="#4A8EED" stroke="#4A8EED" stroke-width="0.144683" stroke-miterlimit="10"/>
<path d="M41.2405 164.97H187.143" stroke="#263238" stroke-width="0.144683" stroke-miterlimit="10"/>
<path d="M29.9199 164.97H33.9634" stroke="#263238" stroke-width="0.144683" stroke-miterlimit="10"/>
<path d="M22.8658 207.572H16.1155V250H22.8658V207.572Z" stroke="#263238" stroke-width="0.144683" stroke-miterlimit="10"/>
<path d="M68.3226 207.572H61.5723V250H68.3226V207.572Z" stroke="#263238" stroke-width="0.144683" stroke-miterlimit="10"/>
<path d="M25.1203 187.474H59.6484C62.2407 187.474 64.7269 188.496 66.56 190.315C68.3931 192.134 69.4229 194.602 69.4229 197.174V211.759H15.3525V197.174C15.3525 194.603 16.3814 192.136 18.213 190.317C20.0447 188.498 22.5291 187.475 25.1203 187.474Z" fill="#4A8EED" stroke="#4A8EED" stroke-width="0.144683" stroke-miterlimit="10"/>
<path d="M241.132 89.4333H209.628V238.162H241.132V89.4333Z" stroke="#263238" stroke-width="0.144683" stroke-miterlimit="10"/>
<path d="M258.23 89.4333H244.73V238.162H258.23" stroke="#263238" stroke-width="0.144683" stroke-miterlimit="10"/>
<path d="M204.68 249.779V82.7337H246.978" stroke="#263238" stroke-width="0.144683" stroke-miterlimit="10"/>
<path d="M238.425 155.088H234.827V168.936H238.425V155.088Z" stroke="#263238" stroke-width="0.144683" stroke-miterlimit="10"/>
<path d="M251.028 155.088H247.43V168.936H251.028V155.088Z" stroke="#263238" stroke-width="0.144683" stroke-miterlimit="10"/>
<path d="M162.639 66.9701C162.639 66.9701 162.774 70.494 161.964 72.5776C161.154 74.6611 161.572 79.1029 161.835 79.88C162.099 80.6571 161.046 83.2766 161.046 83.2766L163.543 86.6666C163.543 86.6666 166.432 82.3588 167.877 80.014C169.321 77.6692 171.448 75.5789 170.766 74.2725C170.084 72.9661 168.012 70.36 167.877 69.7102C167.742 69.0603 166.527 68.4105 166.527 68.4105L164.427 73.1001C164.427 73.1001 164.036 69.7102 164.036 68.1492C164.036 66.5882 163.037 65.7977 162.639 66.9701Z" fill="white"/>
<mask id="mask0_391_4517" style="mask-type:luminance" maskUnits="userSpaceOnUse" x="161" y="66" width="10" height="21">
<path d="M162.639 66.9701C162.639 66.9701 162.774 70.494 161.964 72.5776C161.154 74.6611 161.572 79.1029 161.835 79.88C162.099 80.6571 161.046 83.2766 161.046 83.2766L163.543 86.6666C163.543 86.6666 166.432 82.3588 167.877 80.014C169.321 77.6692 171.448 75.5789 170.766 74.2725C170.084 72.9661 168.012 70.36 167.877 69.7102C167.742 69.0603 166.527 68.4105 166.527 68.4105L164.427 73.1001C164.427 73.1001 164.036 69.7102 164.036 68.1492C164.036 66.5882 163.037 65.7977 162.639 66.9701Z" fill="white"/>
</mask>
<g mask="url(#mask0_391_4517)">
<path opacity="0.15" d="M162.639 66.9701C162.639 66.9701 162.774 70.494 161.964 72.5776C161.154 74.6611 161.572 79.1029 161.835 79.88C162.099 80.6571 161.046 83.2766 161.046 83.2766L163.543 86.6666C163.543 86.6666 166.432 82.3588 167.877 80.014C169.321 77.6692 171.448 75.5789 170.766 74.2725C170.084 72.9661 168.012 70.36 167.877 69.7102C167.742 69.0603 166.527 68.4105 166.527 68.4105L164.427 73.1001C164.427 73.1001 164.036 69.7102 164.036 68.1492C164.036 66.5882 163.037 65.7977 162.639 66.9701Z" fill="black" stroke="#263238" stroke-width="0.144683" stroke-linecap="round" stroke-linejoin="round"/>
</g>
<path d="M162.639 66.9701C162.639 66.9701 162.774 70.494 161.964 72.5776C161.154 74.6611 161.572 79.1029 161.835 79.88C162.099 80.6571 161.046 83.2766 161.046 83.2766L163.543 86.6666C163.543 86.6666 166.432 82.3588 167.877 80.014C169.321 77.6692 171.448 75.5789 170.766 74.2725C170.084 72.9661 168.012 70.36 167.877 69.7102C167.742 69.0603 166.527 68.4105 166.527 68.4105L164.427 73.1001C164.427 73.1001 164.036 69.7102 164.036 68.1492C164.036 66.5882 163.037 65.7977 162.639 66.9701Z" stroke="#263238" stroke-width="0.144683" stroke-linecap="round" stroke-linejoin="round"/>
<path d="M160.539 82.5128L165.798 87.725C165.798 87.725 149.239 114.985 147.531 115.762C145.823 116.539 139.384 111.321 139.384 111.321L135.043 87.5776C135.043 87.5776 140.835 90.6661 142.806 93.922C144.777 97.178 146.087 97.4929 146.087 97.4929L160.539 82.5128Z" fill="white"/>
<mask id="mask1_391_4517" style="mask-type:luminance" maskUnits="userSpaceOnUse" x="135" y="82" width="31" height="34">
<path d="M160.539 82.5128L165.798 87.725C165.798 87.725 149.239 114.985 147.531 115.762C145.823 116.539 139.384 111.321 139.384 111.321L135.043 87.5776C135.043 87.5776 140.835 90.6661 142.806 93.922C144.777 97.178 146.087 97.4929 146.087 97.4929L160.539 82.5128Z" fill="white"/>
</mask>
<g mask="url(#mask1_391_4517)">
<path d="M145.088 104.855C144.568 104.855 144.041 102.598 144.041 101.385C144.041 100.173 141.247 102.43 141.247 102.43L138.108 98.2699L137.088 98.759L139.383 111.314C139.383 111.314 145.823 116.526 147.531 115.742C149.239 114.958 164.009 90.6392 165.649 87.9527C161.612 91.3493 145.547 104.855 145.088 104.855Z" fill="#4A8EED"/>
<path opacity="0.5" d="M145.088 104.855C144.568 104.855 144.041 102.598 144.041 101.385C144.041 100.173 141.247 102.43 141.247 102.43L138.108 98.2699L137.088 98.759L139.383 111.314C139.383 111.314 145.823 116.526 147.531 115.742C149.239 114.958 164.009 90.6392 165.649 87.9527C161.612 91.3493 145.547 104.855 145.088 104.855Z" fill="white"/>
</g>
<path d="M160.539 82.5128L165.798 87.725C165.798 87.725 149.239 114.985 147.531 115.762C145.823 116.539 139.384 111.321 139.384 111.321L135.043 87.5776C135.043 87.5776 140.835 90.6661 142.806 93.922C144.777 97.178 146.087 97.4929 146.087 97.4929L160.539 82.5128Z" stroke="#263238" stroke-width="0.144683" stroke-linecap="round" stroke-linejoin="round"/>
<path d="M143.643 106.048C143.981 103.033 146.087 97.4862 146.087 97.4862C146.087 97.4862 143.306 101.359 142.462 103.368" stroke="#263238" stroke-width="0.144683" stroke-linecap="round" stroke-linejoin="round"/>
<path d="M130.142 239.281C132.286 241.101 134.745 242.519 137.399 243.468C141.955 245.143 143.98 246.148 144.655 247.655C145.331 249.162 144.655 250 144.655 250H115.798C115.798 250 114.279 247.655 116.81 242.965C119.342 238.276 130.142 239.281 130.142 239.281Z" fill="white" stroke="#263238" stroke-width="0.144683" stroke-linecap="round" stroke-linejoin="round"/>
<path d="M131.175 240.272C131.175 240.272 128.819 241.297 129.555 241.733C130.291 242.168 132.201 241.15 132.201 241.15C132.201 241.15 129.852 242.905 131.027 243.053C132.201 243.2 133.97 242.175 133.97 242.175C133.97 242.175 132.35 244.218 133.086 244.366C133.821 244.513 135.732 243.026 135.732 243.026" stroke="#263238" stroke-width="0.144683" stroke-linecap="round" stroke-linejoin="round"/>
<path d="M115.535 247.89L144.656 247.655" stroke="#263238" stroke-width="0.144683" stroke-linecap="round" stroke-linejoin="round"/>
<path d="M141.281 167.764C141.281 167.764 137.905 195.064 137.399 201.596C136.893 208.128 132.336 219.517 131.493 222.365C130.629 225.941 130.065 229.582 129.805 233.251C129.964 234.834 130.246 236.402 130.649 237.941C130.649 237.941 130.986 239.448 127.78 240.118C124.573 240.788 118.667 241.793 118.667 241.793C118.667 241.793 116.473 241.123 116.642 234.759C116.811 228.394 117.148 216.67 118.667 211.143C120.186 205.616 122.211 196.572 122.717 194.729C123.223 192.887 122.042 162.572 122.042 162.572L140.943 162.404L141.281 167.764Z" fill="#263238" stroke="#263238" stroke-width="0.144683" stroke-linecap="round" stroke-linejoin="round"/>
<path d="M116.81 239.281C118.954 241.101 121.413 242.519 124.067 243.468C128.624 245.143 130.649 246.148 131.324 247.655C131.999 249.162 131.324 250 131.324 250H102.466C102.466 250 100.947 247.655 103.478 242.965C106.01 238.276 116.81 239.281 116.81 239.281Z" fill="white" stroke="#263238" stroke-width="0.144683" stroke-linecap="round" stroke-linejoin="round"/>
<path d="M120.287 241.592C120.287 241.592 116.608 243.635 117.195 243.923C117.782 244.212 121.461 242.463 121.461 242.463C121.461 242.463 119.402 244.801 120.577 244.654C121.752 244.506 123.081 243.053 123.081 243.053C123.081 243.053 121.9 245.531 122.784 245.243C123.516 244.89 124.169 244.393 124.702 243.783" stroke="#263238" stroke-width="0.144683" stroke-linecap="round" stroke-linejoin="round"/>
<path d="M102.101 247.213L131.324 247.655" stroke="#263238" stroke-width="0.144683" stroke-linecap="round" stroke-linejoin="round"/>
<path d="M107.191 160.729C107.191 160.729 108.204 186.857 108.035 191.882C107.866 196.907 105.166 202.434 104.829 208.463C104.491 214.493 102.075 238.202 102.075 240.882C102.075 243.562 102.189 244.071 102.358 244.573C102.527 245.076 106.685 243.97 109.048 243.133C111.41 242.296 119.524 241.451 119.524 241.451C119.524 241.451 118.174 238.946 118.174 237.103C118.174 235.261 117.837 232.246 118.174 231.241C118.512 230.236 120.537 209.301 121.887 205.448C123.237 201.596 125.6 188.867 125.768 184.01C125.937 179.153 127.962 162.739 127.962 162.739C127.962 162.739 114.448 163.242 107.191 160.729Z" fill="#263238" stroke="#263238" stroke-width="0.144683" stroke-linecap="round" stroke-linejoin="round"/>
<path d="M128.549 180.66C128.63 179.655 128.678 178.717 128.678 177.86" stroke="white" stroke-width="0.144683" stroke-linecap="round" stroke-linejoin="round"/>
<path d="M119.524 239.743V234.638C119.524 232.079 121.813 219.303 123.811 207.947C125.296 199.533 127.253 190.803 128.165 184.07" stroke="white" stroke-width="0.144683" stroke-linecap="round" stroke-linejoin="round"/>
<path d="M110.742 78.8014C110.742 78.8014 104.565 84.4089 104.039 84.8309C103.512 85.253 98.7802 92.9105 97.4706 95.9119C96.1611 98.9132 97.3356 104.521 98.1457 109.311C98.9557 114.101 104.059 129.523 104.059 129.523L102.743 168.514C102.743 168.514 111.808 172.299 116.918 173.204C122.028 174.108 130.19 173.726 130.19 173.726L131.897 165.251L133.997 173.331C133.997 173.331 142.009 172.42 145.688 168.38L141.226 118.69L138.729 96.3875C138.729 96.3875 138.054 91.0279 136.758 88.6965C135.462 86.3651 128.347 81.7826 123.352 79.9872C118.356 78.1917 110.742 78.8014 110.742 78.8014Z" fill="white"/>
<mask id="mask2_391_4517" style="mask-type:luminance" maskUnits="userSpaceOnUse" x="96" y="78" width="50" height="96">
<path d="M110.742 78.8014C110.742 78.8014 104.565 84.4089 104.039 84.8309C103.512 85.253 98.7802 92.9105 97.4706 95.9119C96.1611 98.9132 97.3356 104.521 98.1457 109.311C98.9557 114.101 104.059 129.523 104.059 129.523L102.743 168.514C102.743 168.514 111.808 172.299 116.918 173.204C122.028 174.108 130.19 173.726 130.19 173.726L131.897 165.251L133.997 173.331C133.997 173.331 142.009 172.42 145.688 168.38L141.226 118.69L138.729 96.3875C138.729 96.3875 138.054 91.0279 136.758 88.6965C135.462 86.3651 128.347 81.7826 123.352 79.9872C118.356 78.1917 110.742 78.8014 110.742 78.8014Z" fill="white"/>
</mask>
<g mask="url(#mask2_391_4517)">
<path d="M115.933 112.661L102.838 105.733L103.391 100.729C103.391 100.729 98.828 100.019 99.8743 97.0709C100.921 94.1231 105.133 88.5425 105.99 86.6599C106.847 84.7774 111.573 81.3003 111.573 81.3003L113.456 78.7009C111.829 78.7009 110.756 78.8081 110.756 78.8081C110.756 78.8081 104.579 84.4156 104.053 84.8377C103.526 85.2597 98.7943 92.9172 97.4847 95.9186C96.1751 98.92 97.3497 104.527 98.1597 109.318C98.9698 114.108 104.073 129.53 104.073 129.53L102.757 168.521C102.757 168.521 104.91 169.419 107.711 170.444C107.327 156.201 106.638 129.141 106.895 128.759C107.246 128.244 113.355 119.923 115.096 118.04C116.838 116.158 107.421 118.556 107.941 118.214C108.461 117.873 115.933 112.661 115.933 112.661Z" fill="#4A8EED"/>
<path opacity="0.5" d="M115.933 112.661L102.838 105.733L103.391 100.729C103.391 100.729 98.828 100.019 99.8743 97.0709C100.921 94.1231 105.133 88.5425 105.99 86.6599C106.847 84.7774 111.573 81.3003 111.573 81.3003L113.456 78.7009C111.829 78.7009 110.756 78.8081 110.756 78.8081C110.756 78.8081 104.579 84.4156 104.053 84.8377C103.526 85.2597 98.7943 92.9172 97.4847 95.9186C96.1751 98.92 97.3497 104.527 98.1597 109.318C98.9698 114.108 104.073 129.53 104.073 129.53L102.757 168.521C102.757 168.521 104.91 169.419 107.711 170.444C107.327 156.201 106.638 129.141 106.895 128.759C107.246 128.244 113.355 119.923 115.096 118.04C116.838 116.158 107.421 118.556 107.941 118.214C108.461 117.873 115.933 112.661 115.933 112.661Z" fill="white"/>
<path d="M128.455 106.464C128.455 106.464 132.971 149.528 131.898 165.265L128.455 106.464Z" fill="white"/>
<path d="M128.455 106.464C128.455 106.464 132.971 149.528 131.898 165.265" stroke="#263238" stroke-width="0.144683" stroke-linecap="round" stroke-linejoin="round"/>
<path d="M108.542 142.976L122.211 144.818V148.335L108.71 146.158L108.542 142.976Z" stroke="#263238" stroke-width="0.144683" stroke-linecap="round" stroke-linejoin="round"/>
<path d="M142.799 145.321L138.58 146.828L138.074 143.478L141.449 142.306" stroke="#263238" stroke-width="0.144683" stroke-linecap="round" stroke-linejoin="round"/>
</g>
<path d="M110.742 78.8014C110.742 78.8014 104.565 84.4089 104.039 84.8309C103.512 85.253 98.7802 92.9105 97.4706 95.9119C96.1611 98.9132 97.3356 104.521 98.1457 109.311C98.9557 114.101 104.059 129.523 104.059 129.523L102.743 168.514C102.743 168.514 111.808 172.299 116.918 173.204C122.028 174.108 130.19 173.726 130.19 173.726L131.897 165.251L133.997 173.331C133.997 173.331 142.009 172.42 145.688 168.38L141.226 118.69L138.729 96.3875C138.729 96.3875 138.054 91.0279 136.758 88.6965C135.462 86.3651 128.347 81.7826 123.352 79.9872C118.356 78.1917 110.742 78.8014 110.742 78.8014Z" stroke="#263238" stroke-width="0.144683" stroke-linecap="round" stroke-linejoin="round"/>
<path d="M109.952 79.8332C109.952 79.8332 121.644 93.7882 123.615 97.4394C125.586 101.091 128.482 105.526 128.482 105.526C128.482 105.526 128.61 93.1317 126.902 87.3969C125.194 81.6621 123.358 80.6304 123.358 80.6304C122.385 79.6403 121.179 78.9067 119.848 78.4961C118.517 78.0855 117.104 78.0108 115.737 78.2789C110.742 79.0627 109.952 79.8332 109.952 79.8332Z" fill="white" stroke="#263238" stroke-width="0.144683" stroke-linecap="round" stroke-linejoin="round"/>
<path d="M128.171 95.9721L125.323 90.1502V85.0653L121.381 81.0457L120.989 87.5642L123.878 90.8269L125.228 100.28C126.869 103.067 128.502 105.566 128.502 105.566C128.502 105.566 128.529 100.89 128.171 95.9721Z" fill="#263238" stroke="#263238" stroke-width="0.144683" stroke-linecap="round" stroke-linejoin="round"/>
<path d="M123.088 84.0204L126.902 87.4103L123.615 79.5853C123.615 79.5853 122.17 83.2365 123.088 84.0204Z" fill="white" stroke="#263238" stroke-width="0.144683" stroke-linecap="round" stroke-linejoin="round"/>
<path d="M114.812 49.9802C114.812 49.9802 109.56 52.3317 107.326 56.5055C105.092 60.6792 108.372 65.7641 109.425 67.0638C110.181 67.9631 111.017 68.7928 111.923 69.5426L112.976 70.7151L113.104 76.5838L122.683 84.6701L125.309 76.3225C125.309 76.3225 129.778 75.4114 130.439 73.7164C131.101 72.0215 129.123 61.5904 128.596 59.5001C128.07 57.4099 126.497 53.3768 126.497 53.3768C126.497 53.3768 127.017 51.4206 123.999 49.5916C120.982 47.7626 114.812 49.9802 114.812 49.9802Z" fill="white"/>
<mask id="mask3_391_4517" style="mask-type:luminance" maskUnits="userSpaceOnUse" x="106" y="48" width="25" height="37">
<path d="M114.812 49.9802C114.812 49.9802 109.56 52.3317 107.326 56.5055C105.092 60.6792 108.372 65.7641 109.425 67.0638C110.181 67.9631 111.017 68.7928 111.923 69.5426L112.976 70.7151L113.104 76.5838L122.683 84.6701L125.309 76.3225C125.309 76.3225 129.778 75.4114 130.439 73.7164C131.101 72.0215 129.123 61.5904 128.596 59.5001C128.07 57.4099 126.497 53.3768 126.497 53.3768C126.497 53.3768 127.017 51.4206 123.999 49.5916C120.982 47.7626 114.812 49.9802 114.812 49.9802Z" fill="white"/>
</mask>
<g mask="url(#mask3_391_4517)">
<g opacity="0.15">
<path d="M114.812 49.9802C114.812 49.9802 109.56 52.3317 107.326 56.5055C105.092 60.6792 108.372 65.7641 109.425 67.0638C110.181 67.9631 111.017 68.7928 111.923 69.5426L112.976 70.7151L113.104 76.5838L122.683 84.6701L125.309 76.3225C125.309 76.3225 129.778 75.4114 130.439 73.7164C131.101 72.0215 129.123 61.5904 128.596 59.5001C128.07 57.4099 126.497 53.3768 126.497 53.3768C126.497 53.3768 127.017 51.4206 123.999 49.5916C120.982 47.7626 114.812 49.9802 114.812 49.9802Z" fill="black"/>
<mask id="mask4_391_4517" style="mask-type:luminance" maskUnits="userSpaceOnUse" x="106" y="48" width="25" height="37">
<path d="M114.812 49.9802C114.812 49.9802 109.56 52.3317 107.326 56.5055C105.092 60.6792 108.372 65.7641 109.425 67.0638C110.181 67.9631 111.017 68.7928 111.923 69.5426L112.976 70.7151L113.104 76.5838L122.683 84.6701L125.309 76.3225C125.309 76.3225 129.778 75.4114 130.439 73.7164C131.101 72.0215 129.123 61.5904 128.596 59.5001C128.07 57.4099 126.497 53.3768 126.497 53.3768C126.497 53.3768 127.017 51.4206 123.999 49.5916C120.982 47.7626 114.812 49.9802 114.812 49.9802Z" fill="white"/>
</mask>
<g mask="url(#mask4_391_4517)">
<path d="M118.383 71.5928C117.857 68.9934 119.956 62.2135 117.708 57.7316C115.906 54.1474 110.688 54.3819 108.622 54.6565C108.133 55.2255 107.708 55.8455 107.353 56.5056C105.119 60.6794 108.4 65.7643 109.453 67.064C110.208 67.9633 111.044 68.7929 111.95 69.5428L113.003 70.7152L113.132 76.5839L115.778 78.8149C115.778 78.0645 115.778 77.475 115.778 77.1333C115.778 75.9877 121.016 75.9207 122.413 75.4048C123.811 74.889 118.903 74.1922 118.383 71.5928Z" fill="black"/>
<path opacity="0.5" d="M118.383 71.5928C117.857 68.9934 119.956 62.2135 117.708 57.7316C115.906 54.1474 110.688 54.3819 108.622 54.6565C108.133 55.2255 107.708 55.8455 107.353 56.5056C105.119 60.6794 108.4 65.7643 109.453 67.064C110.208 67.9633 111.044 68.7929 111.95 69.5428L113.003 70.7152L113.132 76.5839L115.778 78.8149C115.778 78.0645 115.778 77.475 115.778 77.1333C115.778 75.9877 121.016 75.9207 122.413 75.4048C123.811 74.889 118.903 74.1922 118.383 71.5928Z" fill="black"/>
</g>
</g>
<g style="mix-blend-mode:multiply" opacity="0.22">
<path d="M118.383 71.5928C117.857 68.9934 119.956 62.2135 117.708 57.7316C115.906 54.1474 110.688 54.3819 108.622 54.6565C108.133 55.2255 107.708 55.8455 107.353 56.5056C105.119 60.6794 108.4 65.7643 109.453 67.064C110.208 67.9633 111.044 68.7929 111.95 69.5428L113.003 70.7152L113.132 76.5839L115.778 78.8149C115.778 78.0645 115.778 77.475 115.778 77.1333C115.778 75.9877 121.016 75.9207 122.413 75.4048C123.811 74.889 118.903 74.1922 118.383 71.5928Z" fill="black"/>
</g>
</g>
<path d="M114.812 49.9802C114.812 49.9802 109.56 52.3317 107.326 56.5055C105.092 60.6792 108.372 65.7641 109.425 67.0638C110.181 67.9631 111.017 68.7928 111.923 69.5426L112.976 70.7151L113.104 76.5838L122.683 84.6701L125.309 76.3225C125.309 76.3225 129.778 75.4114 130.439 73.7164C131.101 72.0214 129.123 61.5904 128.596 59.5001C128.07 57.4099 126.497 53.3768 126.497 53.3768C126.497 53.3768 127.017 51.4206 123.999 49.5916C120.982 47.7626 114.812 49.9802 114.812 49.9802Z" stroke="#263238" stroke-width="0.144683" stroke-linecap="round" stroke-linejoin="round"/>
<path d="M116.257 70.9763C116.257 70.9763 116.783 73.0666 117.701 73.5891C119.825 74.7855 122.226 75.4134 124.668 75.4114" stroke="#263238" stroke-width="0.144683" stroke-linecap="round" stroke-linejoin="round"/>
<path d="M128.61 59.5002L127.82 60.9339C127.82 60.9339 130.973 63.808 130.844 64.5852C130.716 65.3623 128.219 66.2868 128.219 66.2868" fill="white"/>
<mask id="mask5_391_4517" style="mask-type:luminance" maskUnits="userSpaceOnUse" x="127" y="59" width="4" height="8">
<path d="M128.61 59.5002L127.82 60.9339C127.82 60.9339 130.973 63.808 130.844 64.5852C130.716 65.3623 128.219 66.2868 128.219 66.2868" fill="white"/>
</mask>
<g mask="url(#mask5_391_4517)">
<path opacity="0.15" d="M128.61 59.5002L127.82 60.9339C127.82 60.9339 130.973 63.808 130.844 64.5852C130.716 65.3623 128.219 66.2868 128.219 66.2868" fill="black"/>
</g>
<path d="M128.61 59.5002L127.82 60.9339C127.82 60.9339 130.973 63.808 130.844 64.5852C130.716 65.3623 128.219 66.2868 128.219 66.2868" stroke="#263238" stroke-width="0.144683" stroke-linecap="round" stroke-linejoin="round"/>
<path d="M124.587 62.3408L124.796 62.8633L123.061 63.5467L124.884 63.5065" stroke="#263238" stroke-width="0.144683" stroke-linecap="round" stroke-linejoin="round"/>
<path d="M124.843 60.4582C124.843 60.4582 122.629 59.8552 121.704 61.6976" stroke="#263238" stroke-width="0.144683" stroke-linecap="round" stroke-linejoin="round"/>
<path d="M129.433 68.1157C128.425 68.402 127.384 68.5552 126.335 68.5713" stroke="#263238" stroke-width="0.144683" stroke-linecap="round" stroke-linejoin="round"/>
<path d="M118.633 54.1539C122.177 52.0704 126.517 53.3701 126.517 53.3701C126.517 53.3701 127.037 51.4206 124.02 49.5916C121.002 47.7626 114.819 49.9802 114.819 49.9802C114.819 49.9802 109.567 52.3317 107.333 56.5055C105.099 60.6792 108.379 65.7641 109.432 67.0638C110.188 67.9631 111.024 68.7928 111.93 69.5426L112.983 70.7151V71.1907C115.116 70.9361 115.467 70.5878 115.467 70.5878C115.172 70.5946 114.879 70.5383 114.607 70.4227C114.336 70.3071 114.093 70.1349 113.894 69.9178C112.976 69.134 111.268 67.8276 111.66 66.0053C112.051 64.1831 113.631 64.1764 114.421 64.8262C115.211 65.4761 115.211 65.6101 116.129 65.2215C117.047 64.8329 115.73 62.4814 115.73 62.4814L117.08 61.5703C118.397 60.6591 118.788 59.614 117.756 58.7029C116.723 57.7918 115.076 56.2442 118.633 54.1539Z" fill="#263238" stroke="#263238" stroke-width="0.144683" stroke-linecap="round" stroke-linejoin="round"/>
<path d="M111.795 75.2841L109.952 79.8465L120.462 89.889L123.223 84.5428L111.795 75.2841Z" fill="white" stroke="#263238" stroke-width="0.144683" stroke-linecap="round" stroke-linejoin="round"/>
<path d="M139.384 43.2404C139.384 43.2404 146.215 55.2392 147.268 60.974C148.321 66.7087 150.292 74.2724 150.292 74.2724L167.506 72.3162C167.506 72.3162 165.008 56.4116 163.455 51.0654C161.903 45.7193 161.484 44.5401 161.484 44.5401C161.484 44.5401 142.259 42.5839 139.384 43.2404Z" fill="#263238" stroke="#263238" stroke-width="0.144683" stroke-linecap="round" stroke-linejoin="round"/>
<path d="M141.753 83.2765C141.753 83.2765 142.428 78.5868 142.428 78.1849C142.428 77.7829 142.259 71.1236 142.259 71.1236C142.259 71.1236 144.757 65.764 145.155 65.5161C145.554 65.2683 149.752 63.1713 150.015 64.0825C150.279 64.9936 149.097 65.3889 148.699 65.7774C148.301 66.166 146.6 66.9498 146.465 67.3451C146.33 67.7404 145.547 70.735 145.547 70.735C145.547 70.735 148.962 68.1289 149.88 68.1289C150.799 68.1289 151.588 70.2125 151.588 70.2125C151.588 70.2125 152.776 71.9074 152.776 72.8186C152.776 73.7297 153.04 74.7748 152.378 75.4314C151.717 76.0879 151.46 76.6038 150.542 76.6038C149.624 76.6038 148.436 77.6489 148.436 78.426C148.436 79.2032 148.436 81.816 147.646 82.5998C146.426 83.6185 145.156 84.5755 143.839 85.4672L141.753 83.2765Z" fill="white"/>
<mask id="mask6_391_4517" style="mask-type:luminance" maskUnits="userSpaceOnUse" x="141" y="63" width="12" height="23">
<path d="M141.753 83.2765C141.753 83.2765 142.428 78.5868 142.428 78.1849C142.428 77.7829 142.259 71.1236 142.259 71.1236C142.259 71.1236 144.757 65.764 145.155 65.5161C145.554 65.2683 149.752 63.1713 150.015 64.0825C150.279 64.9936 149.097 65.3889 148.699 65.7774C148.301 66.166 146.6 66.9498 146.465 67.3451C146.33 67.7404 145.547 70.735 145.547 70.735C145.547 70.735 148.962 68.1289 149.88 68.1289C150.799 68.1289 151.588 70.2125 151.588 70.2125C151.588 70.2125 152.776 71.9074 152.776 72.8186C152.776 73.7297 153.04 74.7748 152.378 75.4314C151.717 76.0879 151.46 76.6038 150.542 76.6038C149.624 76.6038 148.436 77.6489 148.436 78.426C148.436 79.2032 148.436 81.816 147.646 82.5998C146.426 83.6185 145.156 84.5755 143.839 85.4672L141.753 83.2765Z" fill="white"/>
</mask>
<g mask="url(#mask6_391_4517)">
<path opacity="0.15" d="M141.753 83.2765C141.753 83.2765 142.428 78.5868 142.428 78.1849C142.428 77.7829 142.259 71.1236 142.259 71.1236C142.259 71.1236 144.757 65.764 145.155 65.5161C145.554 65.2683 149.752 63.1713 150.015 64.0825C150.279 64.9936 149.097 65.3889 148.699 65.7774C148.301 66.166 146.6 66.9498 146.465 67.3451C146.33 67.7404 145.547 70.735 145.547 70.735C145.547 70.735 148.962 68.1289 149.88 68.1289C150.799 68.1289 151.588 70.2125 151.588 70.2125C151.588 70.2125 152.776 71.9074 152.776 72.8186C152.776 73.7297 153.04 74.7748 152.378 75.4314C151.717 76.0879 151.46 76.6038 150.542 76.6038C149.624 76.6038 148.436 77.6489 148.436 78.426C148.436 79.2032 148.436 81.816 147.646 82.5998C146.426 83.6185 145.156 84.5755 143.839 85.4672L141.753 83.2765Z" fill="black" stroke="#263238" stroke-width="0.144683" stroke-linecap="round" stroke-linejoin="round"/>
</g>
<path d="M141.753 83.2765C141.753 83.2765 142.428 78.5868 142.428 78.1849C142.428 77.7829 142.259 71.1236 142.259 71.1236C142.259 71.1236 144.757 65.764 145.155 65.5161C145.554 65.2683 149.752 63.1713 150.015 64.0825C150.279 64.9936 149.097 65.3889 148.699 65.7774C148.301 66.166 146.6 66.9498 146.465 67.3451C146.33 67.7404 145.547 70.735 145.547 70.735C145.547 70.735 148.962 68.1289 149.88 68.1289C150.799 68.1289 151.588 70.2125 151.588 70.2125C151.588 70.2125 152.776 71.9074 152.776 72.8186C152.776 73.7297 153.04 74.7748 152.378 75.4314C151.717 76.0879 151.46 76.6038 150.542 76.6038C149.624 76.6038 148.436 77.6489 148.436 78.426C148.436 79.2032 148.436 81.816 147.646 82.5998C146.426 83.6185 145.156 84.5755 143.839 85.4672L141.753 83.2765Z" stroke="#263238" stroke-width="0.144683" stroke-linecap="round" stroke-linejoin="round"/>
<path d="M152.79 72.8389L148.321 74.9291" stroke="#263238" stroke-width="0.144683" stroke-linecap="round" stroke-linejoin="round"/>
<path d="M151.602 70.2327L147.403 72.7115" stroke="#263238" stroke-width="0.144683" stroke-linecap="round" stroke-linejoin="round"/>
<path d="M168.161 69.0603C168.161 69.0603 165.271 70.7552 165.271 71.5391C165.271 72.3229 165.946 72.4502 166.844 72.0616C167.742 71.6731 169.477 71.1438 169.477 70.2327C169.477 69.3215 169.079 68.9263 168.161 69.0603Z" fill="white"/>
<mask id="mask7_391_4517" style="mask-type:luminance" maskUnits="userSpaceOnUse" x="165" y="69" width="5" height="4">
<path d="M168.161 69.0603C168.161 69.0603 165.271 70.7552 165.271 71.5391C165.271 72.3229 165.946 72.4502 166.844 72.0616C167.742 71.6731 169.477 71.1438 169.477 70.2327C169.477 69.3215 169.079 68.9263 168.161 69.0603Z" fill="white"/>
</mask>
<g mask="url(#mask7_391_4517)">
<path opacity="0.15" d="M168.161 69.0603C168.161 69.0603 165.271 70.7552 165.271 71.5391C165.271 72.3229 165.946 72.4502 166.844 72.0616C167.742 71.6731 169.477 71.1438 169.477 70.2327C169.477 69.3215 169.079 68.9263 168.161 69.0603Z" fill="black" stroke="#263238" stroke-width="0.144683" stroke-linecap="round" stroke-linejoin="round"/>
</g>
<path d="M168.161 69.0603C168.161 69.0603 165.271 70.7552 165.271 71.5391C165.271 72.3229 165.946 72.4502 166.844 72.0616C167.742 71.6731 169.477 71.1438 169.477 70.2327C169.477 69.3215 169.079 68.9263 168.161 69.0603Z" stroke="#263238" stroke-width="0.144683" stroke-linecap="round" stroke-linejoin="round"/>
<path d="M167.634 67.2314C167.634 67.2314 164.873 67.9014 164.745 68.9264C164.617 69.9514 168.161 69.1877 168.95 68.9264C169.74 68.6651 169.74 66.8429 167.634 67.2314Z" fill="white"/>
<mask id="mask8_391_4517" style="mask-type:luminance" maskUnits="userSpaceOnUse" x="164" y="67" width="6" height="3">
<path d="M167.634 67.2314C167.634 67.2314 164.873 67.9014 164.745 68.9264C164.617 69.9514 168.161 69.1877 168.95 68.9264C169.74 68.6651 169.74 66.8429 167.634 67.2314Z" fill="white"/>
</mask>
<g mask="url(#mask8_391_4517)">
<path opacity="0.15" d="M167.634 67.2314C167.634 67.2314 164.873 67.9014 164.745 68.9264C164.617 69.9514 168.161 69.1877 168.95 68.9264C169.74 68.6651 169.74 66.8429 167.634 67.2314Z" fill="black" stroke="#263238" stroke-width="0.144683" stroke-linecap="round" stroke-linejoin="round"/>
</g>
<path d="M167.634 67.2314C167.634 67.2314 164.873 67.9014 164.745 68.9264C164.617 69.9514 168.161 69.1877 168.95 68.9264C169.74 68.6651 169.74 66.8429 167.634 67.2314Z" stroke="#263238" stroke-width="0.144683" stroke-linecap="round" stroke-linejoin="round"/>
<path d="M169.079 71.1238C169.079 71.1238 165.798 72.6915 165.663 73.214C165.528 73.7366 165.271 74.5137 166.581 74.5137C167.891 74.5137 170.395 73.214 170.523 72.2962C170.651 71.3784 170.132 71.1238 169.079 71.1238Z" fill="white"/>
<mask id="mask9_391_4517" style="mask-type:luminance" maskUnits="userSpaceOnUse" x="165" y="71" width="6" height="4">
<path d="M169.079 71.1238C169.079 71.1238 165.798 72.6915 165.663 73.214C165.528 73.7366 165.271 74.5137 166.581 74.5137C167.891 74.5137 170.395 73.214 170.523 72.2962C170.651 71.3784 170.132 71.1238 169.079 71.1238Z" fill="white"/>
</mask>
<g mask="url(#mask9_391_4517)">
<path opacity="0.15" d="M169.079 71.1238C169.079 71.1238 165.798 72.6915 165.663 73.214C165.528 73.7366 165.271 74.5137 166.581 74.5137C167.891 74.5137 170.395 73.214 170.523 72.2962C170.651 71.3784 170.132 71.1238 169.079 71.1238Z" fill="black" stroke="#263238" stroke-width="0.144683" stroke-linecap="round" stroke-linejoin="round"/>
</g>
<path d="M169.079 71.1238C169.079 71.1238 165.798 72.6915 165.663 73.214C165.528 73.7366 165.271 74.5137 166.581 74.5137C167.891 74.5137 170.395 73.214 170.523 72.2962C170.651 71.3784 170.132 71.1238 169.079 71.1238Z" stroke="#263238" stroke-width="0.144683" stroke-linecap="round" stroke-linejoin="round"/>
<path d="M170.111 72.9728C170.111 72.9728 167.074 74.3529 166.952 74.8152C166.831 75.2775 166.588 75.9675 167.803 75.9675C169.018 75.9675 171.326 74.8152 171.448 74.0113C171.569 73.2073 171.083 72.9728 170.111 72.9728Z" fill="white"/>
<mask id="mask10_391_4517" style="mask-type:luminance" maskUnits="userSpaceOnUse" x="166" y="72" width="6" height="4">
<path d="M170.111 72.9728C170.111 72.9728 167.074 74.3529 166.952 74.8152C166.831 75.2775 166.588 75.9675 167.803 75.9675C169.018 75.9675 171.326 74.8152 171.448 74.0113C171.569 73.2073 171.083 72.9728 170.111 72.9728Z" fill="white"/>
</mask>
<g mask="url(#mask10_391_4517)">
<path opacity="0.15" d="M170.111 72.9728C170.111 72.9728 167.074 74.3529 166.952 74.8152C166.831 75.2775 166.588 75.9675 167.803 75.9675C169.018 75.9675 171.326 74.8152 171.448 74.0113C171.569 73.2073 171.083 72.9728 170.111 72.9728Z" fill="black" stroke="#263238" stroke-width="0.144683" stroke-linecap="round" stroke-linejoin="round"/>
</g>
<path d="M170.111 72.9728C170.111 72.9728 167.074 74.3529 166.952 74.8152C166.831 75.2775 166.588 75.9675 167.803 75.9675C169.018 75.9675 171.326 74.8152 171.448 74.0113C171.569 73.2073 171.083 72.9728 170.111 72.9728Z" stroke="#263238" stroke-width="0.144683" stroke-linecap="round" stroke-linejoin="round"/>
<path d="M144.406 44.9489C144.406 44.9489 149.887 54.4287 150.9 58.2809C151.912 62.1331 152.756 72.8522 152.756 72.8522L163.725 71.5124C163.725 71.5124 163.388 61.7981 161.869 57.1085C160.35 52.4188 159.169 46.3893 159.169 46.3893L144.406 44.9489Z" fill="#7D7D7D"/>
<path d="M153.499 59.2455C153.499 59.2455 152.243 61.5635 152.959 62.5484C153.674 63.5332 155.382 63.9753 155.564 64.2433C155.746 64.5113 157.002 72.0884 157.002 72.0884L160.863 71.7333C160.863 71.7333 158.98 64.6855 159.425 63.3523C159.871 62.0191 160.958 60.7663 159.878 59.6073C158.798 58.4483 157.09 57.6443 156.016 57.8185C155.086 58.114 154.228 58.6002 153.499 59.2455Z" fill="white"/>
<path d="M149.995 45.7797C149.995 45.7797 153.141 53.819 152.871 55.2326C152.601 56.6462 151.879 58.9776 153.499 59.2523C155.119 59.527 155.834 58.0062 156.374 58.0933C156.914 58.1804 157.812 59.8754 158.622 58.8972C159.432 57.9191 160.236 56.3113 158.892 54.7034C157.549 53.0955 156.557 52.2112 155.834 50.5162C155.283 49.1141 154.803 47.6853 154.396 46.2352L149.995 45.7797Z" fill="white"/>
<path d="M110.08 87.4438C110.08 87.4438 112.051 87.4438 114.421 89.534C116.79 91.6243 125.221 100.099 125.221 100.099L141.645 82.3589L147.045 87.4438L127.557 115.742C126.628 116.056 125.647 116.191 124.668 116.138C123.223 116.004 101.15 105.184 101.15 105.184" fill="white"/>
<mask id="mask11_391_4517" style="mask-type:luminance" maskUnits="userSpaceOnUse" x="101" y="82" width="47" height="35">
<path d="M110.08 87.4438C110.08 87.4438 112.051 87.4438 114.421 89.534C116.79 91.6243 125.221 100.099 125.221 100.099L141.645 82.3589L147.045 87.4438L127.557 115.742C126.628 116.056 125.647 116.191 124.668 116.138C123.223 116.004 101.15 105.184 101.15 105.184" fill="white"/>
</mask>
<g mask="url(#mask11_391_4517)">
<path d="M122.049 111.783C119.078 111.783 109.128 106.236 105.99 103.81C104.929 102.958 104.048 101.906 103.397 100.715L101.15 105.184C101.15 105.184 123.223 116.003 124.668 116.137C125.647 116.19 126.628 116.056 127.557 115.742L141.638 95.2417C136.562 100.186 124.384 111.783 122.049 111.783Z" fill="#4A8EED"/>
<path opacity="0.5" d="M122.049 111.783C119.078 111.783 109.128 106.236 105.99 103.81C104.929 102.958 104.048 101.906 103.397 100.715L101.15 105.184C101.15 105.184 123.223 116.003 124.668 116.137C125.647 116.19 126.628 116.056 127.557 115.742L141.638 95.2417C136.562 100.186 124.384 111.783 122.049 111.783Z" fill="white"/>
</g>
<path d="M110.08 87.4438C110.08 87.4438 112.051 87.4438 114.421 89.534C116.79 91.6243 125.221 100.099 125.221 100.099L141.645 82.3589L147.045 87.4438L127.557 115.742C126.628 116.056 125.647 116.191 124.668 116.138C123.223 116.004 101.15 105.184 101.15 105.184" stroke="#263238" stroke-width="0.144683" stroke-linecap="round" stroke-linejoin="round"/>
<path d="M110.08 109.746L102.857 109.612" stroke="#263238" stroke-width="0.144683" stroke-linecap="round" stroke-linejoin="round"/>
<path d="M125.194 99.8444C125.194 99.8444 121.029 104.789 120.523 107.468" stroke="#263238" stroke-width="0.144683" stroke-linecap="round" stroke-linejoin="round"/>
<path d="M123.898 100.354C123.898 100.354 120.354 103.536 119.51 105.211" stroke="#263238" stroke-width="0.144683" stroke-linecap="round" stroke-linejoin="round"/>
<path d="M8.01501 250H270.833" stroke="#263238" stroke-width="0.144683" stroke-linecap="round" stroke-linejoin="round"/>
</svg>
